<svg xmlns="http://www.w3.org/2000/svg" viewBox="0 0 283.46 283.46"><defs><style>.cls-1{fill:#b71c1c;}.cls-2,.cls-3{fill:#fff;}.cls-3{font-size:158.24px;font-family:Berate-The-Elementary, Berate The Elementary;}</style></defs><title>App Icon</title><g id="Layer_2" data-name="Layer 2"><rect class="cls-1" width="283.46" height="283.46"/><path class="cls-2" d="M45.16,198.31l-.69-2.49a6.82,6.82,0,0,1-.32-3.51c-1-.55.67-2.25,3.14-9.11L53.17,174l.49-1.87a3.46,3.46,0,0,0,1-1q.54-1,11.54,3.4c.57.3,1.23,1.72,2,4.28l2.94,1.55c-1.53,5.6.06,5.64-1.25,8.12l-.23.43c-.15.28-.38.62-.67.47l-3.56,4.29c-2.13-.65-3.67,0-3.91.4l-2.71.08-1.51.84c-1.22,6.12-4.5,6.36-3.84,6.7-.92,1.75-3,2.61-6.18,2.6l-.81-.43-.63-.88-.22.43Q43.18,202.08,45.16,198.31Z"/><text class="cls-3" transform="translate(84.87 188.24)">Ar</text><path class="cls-2" d="M185.25,211.2c-.26-.55-.93-1.38-.89-2l-.74-.55a.37.37,0,0,1,.2-.57l-.74-1.42c-.72-1.8.25-1.95,2.39-3l1.12-.54a4.65,4.65,0,0,1,3.15-.14l3-1.45,3.59-2.17c3.54,1.36,7.89,4.77,9,4.21l.54,1.12a10.75,10.75,0,0,0,2.29,2.69c1.1,2.28-.69-1.12-1.39,3.81l.91,1.88-2.15.56-.92,0a38.08,38.08,0,0,0,.18,4.33,3.1,3.1,0,0,0-1.31.16,3.05,3.05,0,0,1-1,.94c-1.22-.63-3-3.2-3.21-3.73l-1.7,1.29c-1.08.52-2.32-2.19-3.72-2.14-.33.47-1.77.84-2.32,1.1a6.3,6.3,0,0,1-3.7-2.85l.38-.19C187.08,211.72,187.22,213.76,185.25,211.2Z"/><path class="cls-2" d="M205.53,137.66v-.16l-1.33-1.84h-.31c-1-.5-1.44-1.09-1.44-1.75.25,0-2.33,0-1.72-2l-.17-.79-1.11.15c0-.17-.37-.33-1.12-.48l-5-1.75c-.11,0-.17-.05-.17-.16v-.17c0-1,8.22-3.39,8.64-5.31H203c.64-.64,1.06-1,1.28-1,2.67.27,4,.54,4,.8a1.16,1.16,0,0,0,.15.48l-.15.63.31,4c-.34,2.45-.71,3.32-1.11,3.32a6.21,6.21,0,0,1-1,1.61v.95C206.48,135.18,206.16,137.66,205.53,137.66Z"/></g></svg>